<?xml version="1.0" encoding="UTF-8"?>
<svg id="_1" data-name="1" xmlns="http://www.w3.org/2000/svg" version="1.1" viewBox="0 0 491.4 894.6">
  <defs>
    <style>
      .cls-1 {
        fill: #ebd2b1;
      }

      .cls-1, .cls-2, .cls-3, .cls-4 {
        stroke: #fff;
        stroke-linecap: round;
        stroke-linejoin: round;
        stroke-width: 2px;
      }

      .cls-2 {
        fill: #e8c5c5;
      }

      .cls-3 {
        fill: #bccdd6;
      }

      .cls-4 {
        fill: #d1d09c;
      }
    </style>
  </defs>
  <path class="cls-2" d="M222.5,153.7l1.3.3v.5s.4-4.8.4-4.8l4.2-2.8,6.3-1.6c0-5.6,3.4-4.4,3.4-4.4,6.3,3.2,2.5-9.6,2.5-9.6.4-4.8-4.6-6.4-4.6-6.4-3.4,0-8.9-4.8-8.9-4.8-3.8-2.4-5.5.8-5.5.8l-1.3,4c-.8.2-1.7-.9-2.5-2.1-.6,1.4-1,3.1-1,5.2,0,0,2,1.6-1.1,5.1,0,0,1.7,5.3-2.2,10.4l-2,6.4,6.3,1.4,4.6,2.4Z"/>
  <path class="cls-2" d="M358.1,47.4s.8,6.9,7.6,12.3l-.6,5.3-.6,8,4.5,6.4,5.1,1.6,2.8,6.4,9.6,2.1,6.7-1.1,2.2-2.7-1.7-5.3,6.2-4.8,6.7-3.7-4.5-5.9-.6-5.9-1.7-2.1-7.9-3.7-3.4-5.9-.6-8.6-1.7-5.9-3.9-1.6-3.4-.5-5.6,3.7-7.9,3.2-4.5,1.6-3.1,6.9Z"/>
  <path class="cls-2" d="M483.9,70.5s-10.4,2.9-13.5-3.2c0,0,1.7-5.1-2.5-9.1l-2-8.6s-.6-5.6-10.7-4.3c0,0-12.9-.8-17.4-2.1l-4.4.4-3.9,3.7-1.7,3.2v3.7l3.9,2.7-1.1,3.2-7.9,2.7-6.7-3.7-4.5-4.3h-7.3l-3.4-4.8-1.1-5.3-2.2-4.8,2.8-3.7,12.9-4.3.4.2c-1.3-1.2-3.2-2.9-4.8-4,0,0,.3-3.7,3.1-6.7,0,0,1.1-1.6-3.7.5,0,0-3.1,2.4-6.7.5,0,0-6.2-4.5-6.7-11,0,0-4.2-5.6-9-7.2l-4.2-2.9s-7-1.9-14.9,3.7l-3.4-2.7-3.4,2.7s-.6,2.7-5.6,6.9l-3.1,2.9s-5.6,7.5-14.9,14.4c0,0-.8,1.6.6,2.4,0,0,12.1,3.7,13.8,8.6,0,0-1.7,2.1-3.9-1.1l-5.1-3.2s-2.2-2.1-4.2.3c0,0-2.2.5-2,4,0,0-7.3,7-20,5.9,0,0-3.7.8-5.9,2.7,0,0-1.9-.5-4.4-.7,2,.6,2.9,1.7,2.9,1.7l3.4,2.7,3.4.5,4.5,3.2h6.2l5.6,5.9,5.6,2.1,1.7,5.9v6.4l-3.4,3.7-6.2,1.6-5.6,4.3-4.5,4.8-1.1,5.3.6,3.7,1.7,4.3,4.5,5.9v10.2l4.5,2.1,7.3-4.3,4.5.5,2.2,4.3,3.4,3.2,2.3,3.2,2.2,3.2-4.5,4.3.6,5.3c0,5.9,7.3,12.3,7.3,12.3,5.6,2.1,3.4,6.4,3.4,6.4.9,1.1,1.1,2,1,2.8l.6-.6c3.8,0,9.3-5.2,9.3-5.2,5.5,5.2,7.2-5.2,7.2-5.2,3.4,0,12.7-4.8,12.7-4.8l-.8-15.2,7.2-2.8,3-4,14.3-2.8c4.6-5.2,10.1-9.6,10.1-9.6h6.3c.4-3.6,11.8-13.2,11.8-13.2,12.6-1.2,10.1-4.8,10.1-4.8,1.3-3.2-3.8-9.6-3.8-9.6,2.1,1.6,8-.8,8-.8,8-6.4,18.6-6.8,18.6-6.8l5.1-1.6,4.8,2.6s7-1.9,7-5.9l.6-3.5s-3.1.5-6.5.5ZM400,75.7l-6.2,4.8,1.7,5.3-2.2,2.7-6.7,1.1-9.6-2.1-2.8-6.4-5.1-1.6-4.5-6.4.6-8,.6-5.3c-6.7-5.3-7.6-12.3-7.6-12.3l3.1-6.9,4.5-1.6,7.9-3.2,5.6-3.7,3.4.5,3.9,1.6,1.7,5.9.6,8.6,3.4,5.9,7.9,3.7,1.7,2.1.6,5.9,4.5,5.9-6.7,3.7Z"/>
  <polygon class="cls-2" points="397.5 39.9 399.7 44.7 400.8 50 404.2 54.9 411.5 54.9 416 59.1 422.8 62.9 430.6 60.2 431.8 57 427.8 54.3 427.8 50.6 429.5 47.4 433.5 43.6 431.2 39.9 426.1 37.2 420.5 36.2 416.6 33.5 413.2 31.9 400.3 36.2 397.5 39.9"/>
  <polygon class="cls-2" points="358.5 163.9 358.5 163.9 358.5 163.9 358.5 163.9"/>
  <path class="cls-2" d="M357.6,161.1s2.2-4.3-3.4-6.4c0,0-7.3-6.4-7.3-12.3l-.6-5.3,4.5-4.3-2.2-3.2-2.3-3.2-3.4-3.2-2.2-4.3-4.5-.5-7.3,4.3-4.5-2.1v-10.2l-4.5-5.9-1.7-4.3-.6-3.7,1.1-5.3,4.5-4.8,5.6-4.3,6.2-1.6,3.4-3.7v-6.4l-1.7-5.9-5.6-2.1-5.6-5.9h-6.2l-4.5-3.2-3.4-.5-3.4-2.7s-.8-1.2-2.9-1.7c-1.7-.1-3.7-.2-5.7.2l-5.7,2.9s-5.1-.3-8.9,2.6c-.9.8-1.8,1.9-2.7,3.3,0,0-.8,1.3-6.2,1.3,0,0-3.9.5-7.3,2.9,0,0-7,3.7-10.1,3.7l-.3,1.9-2.2.5-1.7,1.9s-11.2,4.3-12.9,15.8c0,0-1.4,2.6-3.8,6-.5.7-1.1,1.5-1.7,2.3,2.1.9,5.6,2.3,7.9,1.9,0,0,9.6,0,9.6,4.3,0,0,3.4,9.6,12.4,9.6,0,0,1.7,2.1,5.6,1.6,0,0,0,0,0,0,0,0,0,0,0,0,0,0,.1,0,.2,0,0,0,0,0,0,0,0,0,.2,0,.3,0,0,0,0,0,0,0,1.6.5,5.7,2.3,5.8,7.5h0c0,.4,0,.7,0,1.1,0,0,0,0,0,.1,0,.4,0,.8-.2,1.2,0,0,10.7,3.7,14.1,9.1,0,0,0,0,0,0,0,0,.2,0,.5,0,0,0,0,0,0,0,0,0,.2,0,.2,0,0,0,0,0,0,0,0,0,.2,0,.3,0,0,0,0,0,0,0,.1,0,.2,0,.3,0,0,0,0,0,0,0,.1,0,.2,0,.4,0,0,0,0,0,0,0,.1,0,.3,0,.4,0,0,0,0,0,0,0,.1,0,.3,0,.4,0,0,0,0,0,0,0,.1,0,.3,0,.5,0,0,0,0,0,0,0,.2,0,.3,0,.5.1,0,0,0,0,0,0,.2,0,.3,0,.5.1,0,0,0,0,0,0,.2,0,.3,0,.5.1,0,0,0,0,0,0,.2,0,.3,0,.5.1,0,0,0,0,0,0,.2,0,.3,0,.5.1,0,0,0,0,0,0,.2,0,.3.1.5.2,0,0,0,0,0,0,.2,0,.3.1.5.2s0,0,0,0c.2,0,.3.1.5.2,0,0,0,0,0,0,.2,0,.3.1.5.2,0,0,0,0,0,0,.2,0,.3.1.5.2,0,0,0,0,0,0,.2,0,.3.1.4.2,0,0,0,0,0,0,.1,0,.3.1.4.2,0,0,0,0,0,0,.1,0,.3.1.4.2,0,0,0,0,0,0,.1,0,.3.2.4.2,0,0,0,0,0,0,.1,0,.2.2.3.2,0,0,0,0,0,0,.1,0,.2.2.3.3,0,0,0,0,0,0,0,0,.2.2.3.3,0,0,0,0,0,0,0,0,.2.2.2.3,0,0,0,0,0,0,0,.1.1.2.2.3,0,0,0,0,0,0,0,0,0,.1,0,.2h0c0,0,0,.1,0,.2,0,0,0,0,0,0,0,.1,0,.2,0,.4l5.7,1.7.8,1c.4.2.7.5,1,.8,0,0,0,0,0,0,.2.1.3.3.4.4,0,0,0,0,0,0,.1.1.3.3.4.4,0,0,0,0,0,0,.1.2.3.3.4.5,0,0,0,0,0,0,.4.6.7,1.2.9,1.9l1,1.2v6l1.1,4.4s-1.7,3.7-4.5,3.7c0,0,0,0,0,0,0,0,0,0,0,0,0,0,0,0,0,0,0,0,0,0,.1.1,0,0,0,0,0,0,.7.8,2.4,3.2,3.1,6.3,0,0,0,0,0,.1,0,.2,0,.5.1.7h0s.2.4.2.4v.9c0,0,0,0,0,0h0c0,.4,0,.7,0,1.1,0,.2,0,.3,0,.5,0,.1,0,.3,0,.4,0,.3-.1.7-.2,1l6.2,2.7,4.5,3.7s0,0,0,.1c0,0,0,0,0,0,.3.5,1.8,2.8,2.8,4.8l.3.4,1.6,3c.1,0,.2,0,.3,0,0,0,0,0,0,0,.1,0,.2,0,.4,0,0,0,0,0,0,0,.1,0,.3,0,.4,0,0,0,0,0,0,0,.1,0,.3,0,.4,0,0,0,0,0,0,0l3.1.4,5-1.5,2.3-.7,11.2-.5s5.6-6.9,3.4-12.3c0,0-2.8-3.7.6-4.3,0,0,.8-.8,1-2,.1-.8,0-1.8-1-2.8Z"/>
  <path class="cls-4" d="M368,487.3l-9.3-1.2-8,3.6-.8,3.2-1.7,2.8-2.1,4.4,3,4.8,1.7,3.2-5.5,5.6c-3.8,2-3,7.2-3,7.2-3.8,2.4-2.1,10.4-2.1,10.4-3.4,2-4.2,5.2-4.2,5.2v4c-3,.8-3.8,6-3.8,6,0,6.4-3,7.2-3,7.2-3.4,2.4-3,6.8-3,6.8l1.7,7.2c0,3.6-7.6,3.2-7.6,3.2-.8,3.2-7.6,4.4-7.6,4.4.8-2.8-1.7-5.2-1.7-5.2.4-2.8-2.1-2.8-2.1-2.8l-5.1-2.8-4.6-2.4c.8-2.8-3.8-6.4-3.8-6.4,0-5.6-5.1-9.2-5.1-9.2-4.2,0-8.4,2-8.4,2l-2.1-2.4c-2.1-3.2-11.8-5.6-11.8-5.6-8.4-.8-7.2-6.4-7.2-6.4,0-8.4-5.5-13.6-5.5-13.6,0,0-4.6,3.2-7.2,5.2l-5.9.4s-5.5,3.6-7.6,8l-11,6.4s-2.5,2.8-2.5,5.6l-1.3,4s4.6,2.8-2.5,5.6l-.8,4.4-4.2,2s2.5,1.2,2.5,4.8v7.6l-.8,5.6s-2.9,1.6-2.1,8c0,0,1.7,3.2,0,5.6l-.4,6.8h-3.8s-4.2,6-7.2,8.8c0,0-3.8,2.4-.8,6.8,0,0-3,5.2,1.3,9.2,0,0-1.7,2.8,3.4,6.8,0,0,4.6,3.2,3.8,8,0,0,0,0,0,0,0,.1,0,.3,0,.6,0,0,0,0,0,0,0,0,0,.2,0,.3h0c0,.1,0,.2,0,.3v.2c0,0,0,.1,0,.2h0s0,0,0,0c0,.2,0,.3,0,.5,0,0,0,0,0,0,0,.2,0,.4,0,.6,0,0,0,0,0,0h0c0,.1,0,.3,0,.4,0,0,0,.1,0,.2h0c.3,2,1.3,4.8,3.8,7.8,0,0,8.9,2,8.9,7.6l-2.1,5.2.4,5.2s-2.1,2-1.7,6.4l-9.3,2-3.4,3.2s-4.6.8-5.9,3.6l-7.2-.8s1.7,3.6,0,6.8c0,0-4.2,6.8-8.9,11.6,0,0,.8,5.2-1.3,8.8,0,0-5.5,6.8-.8,13.6,0,0,3.4,9.6,3.4,13.6,0,0-2.5,5.2,1.7,9.2,0,0,5.5,6,5.1,10,0,0-6.7,2.4-8.9,2.4,0,0,.8,6.4-.4,8.4,0,0-1.3,2.8,1.7,4.4,0,0,2.5,2.8,6.3,2.8,0,0,5.9,0,2.5,6.8,0,0-6.7,3.2,2.1,8.4,0,0,2.1,0,.4,3.6,0,0,1.3,2.4,1.3,4.4,0,0,2.1.8,3-1.2,0,0,3.8,3.6,6.3,3.6,0,0,5.9-1.2,5.9,4,0,0,2.9.8,5.5-.8l5.4-1.4c-.1-1.4-.3-3-.6-4.6-.2-.9-.3-1.8-.6-2.7,0,0-1.1-3.2,1.1-9.9,0,0-.3-9.4,2-12.3,0,0,4.5-9.1,6.2-13.6,0,0,2.3-8.3,3.4-10.4,0,0,2.8-10.4,3.9-13.6,0,0,5.6-17.9,11.5-25.1,0,0,2.5-3.7,3.7-11,0,0,3.7-13.9,24.5-21.6,0,0,13.5-8.6,16.3-15.2l-.3-3.7s5.9-2.7,3.9-8.8c0,0-4.8-8.6,9-14.7,0,0,7-5.9,10.4-14.2,0,0,4.8-8.8,9-10.4,0,0,.8-2.9,1.1-5.6,0,0,7.3-30.5,19.7-28.1,0,0,7.6-5.9,5.6-8.6,0,0-3.9-1.6-4.2-5.9,0,0,4.5-4.5,1.1-10.4,0,0-1.7-2.4,0-6.7,0,0,3.9.5,3.1-9.9,0,0,1.7-10.2,9.8-15.5,0,0,2.5,0,3.4-10.2,0,0,1.7-2.7,2.3-15,0,0,1.8-2.7,3.5-6.7l-2.8-1.8Z"/>
  <path class="cls-4" d="M429.5,252.4c-9.3,1.6-14.8-2.4-14.8-2.4-10.5-6.8-16.9-6.8-16.9-6.8.4,8.4-7.2,8.4-7.2,8.4,2.9,4.4,1.3,5.2,1.3,5.2-4.6.8-16.4-7.6-16.4-7.6-8.4,0-13.5-3.6-13.5-3.6-4.2,1.6-8.9-.4-8.9-.4,0,0-1.7,3.2-1.7,7.2l-2.5,4.4-7.2,5.6-3.4,3.2v8l-5.1,2-3.8,5.6.6,1.9,1.1,3.7-1.3,6.4-4.2-1.6-3-4.4v-3.2l-4.2,6.4-5.9,3.6-2.1,6.8,8.9,7.6,6.7,4-1.3,6-3,4-6.7,4-.4,6.4-3.4-1.6s.8,2.8.4,5.2c0,0-2.5,2.8-2.5,6.4,0,0,2.1.8,2.1,4.4l.8,14-4.2,3.2.8,5.6-2.1,4.4-1.7,10.8-3.8,4.4s.8,5.2-.8,6.4c0,0-8.4,4.8.4,9.6,0,0,2.1,4.4,1.7,8.4,0,0,7.6,1.6,2.5,7.6,0,0-3.8,4.4-3.4,10.8,0,0,.4,6.8-1.7,9.2,0,0-9.7,4.4-11.8,7.2,0,0-5.1-2.8-6.7,1.2l1.7,2.8-1.7,4.8s2.5,3.6-3.8,6.8l-5.1,1.6h-11.4l-.8,2.4s1.3,2.8-2.5,5.2c0,0-5.9,2,.4,6l-3,4-3.8,2-4.1,1.2h0s3.4,4.8,3.4,4.8v.9c-.1,0-.8,5.5-.8,5.5,0,0-9.3.8-9.3,8,0,0,2.1,4.4,10.5,4.4l3.8,5.2,2.5,1.2-2.1,3.2s.7.7,1.6,1.8c1.6,2.2,3.9,6.3,3.9,11.8,0,0-1.3,5.6,7.2,6.4,0,0,9.7,2.4,11.8,5.6l2.1,2.4s4.2-2,8.4-2c0,0,5.1,3.6,5.1,9.2,0,0,4.6,3.6,3.8,6.4l4.6,2.4,5.1,2.8s2.5,0,2.1,2.8c0,0,2.5,2.4,1.7,5.2,0,0,6.7-1.2,7.6-4.4,0,0,7.6.4,7.6-3.2l-1.7-7.2s-.4-4.4,3-6.8c0,0,3-.8,3-7.2,0,0,.8-5.2,3.8-6v-4s.8-3.2,4.2-5.2c0,0-1.7-8,2.1-10.4,0,0-.8-5.2,3-7.2l5.5-5.6-1.7-3.2-3-4.8,2.1-4.4,1.7-2.8.8-3.2,8-3.6,9.3,1.2,2.8,1.8c.3-.7.6-1.4.8-2.1,1.3-3.4,2.4-7.5,2.4-11.5,0,0-1.1-9.4-.3-14.7,0,0,4.5-7.8,4.8-20.3,0,0,0-4.5,4.5-15.5,0,0,1.4-4-.6-10.7,0,0,7.9-7.8,5.3-18.2,0,0,0-9.6,4.8-18.2,0,0,5.3-6.7,5.1-21.4l-1.7-.8s-.3-10.2,7-14.4l.8,2.7s4.5-4.8.3-10.7c0,0-11.5-8.8-2.8-18.2,0,0,10.7-7.5,7.6-20.8,0,0-2.5-7.5,7.9-11,0,0,2.5-1.6,4.8-6.7,0,0,8.4-1.1,9.6-10.7,0,0-.3-4.8,4.8-7.2l1.4-9.6s.1-.2.4-.7l-8.1,4Z"/>
  <path class="cls-1" d="M221.6,834.4s-1.1-5.6-.3-17.9c0,0,1.4-5.1.6-13l-5.4,1.4c-2.5,1.6-5.5.8-5.5.8,0-5.2-5.9-4-5.9-4-2.5,0-6.3-3.6-6.3-3.6-.8,2-3,1.2-3,1.2,0-2-1.3-4.4-1.3-4.4,1.7-3.6-.4-3.6-.4-3.6-8.9-5.2-2.1-8.4-2.1-8.4,3.4-6.8-2.5-6.8-2.5-6.8-3.8,0-6.3-2.8-6.3-2.8-3-1.6-1.7-4.4-1.7-4.4,1.3-2,.4-8.4.4-8.4,2.1,0,8.9-2.4,8.9-2.4.4-4-5.1-10-5.1-10-4.2-4-1.7-9.2-1.7-9.2,0-4-3.4-13.6-3.4-13.6-4.6-6.8.8-13.6.8-13.6,2.1-3.6,1.3-8.8,1.3-8.8,4.6-4.8,8.9-11.6,8.9-11.6,1.7-3.2,0-6.8,0-6.8l7.2.8c1.3-2.8,5.9-3.6,5.9-3.6l3.4-3.2,9.3-2c-.4-4.4,1.7-6.4,1.7-6.4l-.4-5.2,2.1-5.2c0-5.6-8.9-7.6-8.9-7.6-.3-.3-.5-.7-.8-1,0,0-.1-.2-.2-.2-.2-.3-.5-.6-.7-1,0,0,0,0,0,0-.2-.3-.4-.6-.5-.9,0,0,0-.1-.1-.2-.2-.3-.3-.6-.4-.9,0,0,0,0,0,0-.1-.3-.2-.5-.3-.8,0,0,0-.1,0-.2,0-.3-.2-.5-.3-.8,0,0,0-.1,0-.2,0,0,0-.1,0-.2,0-.1,0-.3-.1-.4,0,0,0-.2,0-.2,0-.2,0-.4-.1-.6,0,0,0-.2,0-.3,0-.1,0-.2,0-.3,0-.4,0-.8,0-1.1h0s-7-4.1-7-4.1c-5.5-.8-6.3,5.6-6.3,5.6-3,6.4-7.2,1.2-7.2,1.2-.4-4.4-11-6.8-11-6.8-5.1-5.6-6.7-.8-6.7-.8-3.8,5.6-10.1,2.4-10.1,2.4-2.1-5.6-13.9-.8-13.9-.8-11.4.4-11.4,8.4-11.4,8.4-5.1,3.6-19.8,2.8-19.8,2.8-6.7-1.2-6.3,8-6.3,8l-2.5,12c2.5,6-.4,10.4-.4,10.4l-1.7,6.4c-4.6,3.6-1.3,11.2-1.3,11.2-3.8,4.4.8,16,.8,16,1.7,3.2-2.5,10.8-2.5,10.8l-5.5,4.4-.8,4.4,5.1,7.1,3.9,1.2,2.5-.3,2,1.3s4.8,4.3-2.8,3.5c0,0,.6,1.9,3.4,2.1,0,0-3.4,2.9,3.1,5.1,0,0,7.6,2.7,11.8,5.9,0,0,2.2,2.9,9,3.7,0,0,12.6,12.8,17.4,18.4,0,0,6.7,6.7,6.7,15.2,0,0-1.4,4.5,7.3,12,0,0,2.8,7.5,3.1,11.8,0,0,1.1,7.2,5.6,15.8,0,0,1.1,4.3-1.4,7.5,0,0-1.4,1.6,3.4,5.6,0,0,0,2.1-4.2,1.6l-1.1,4.3s-3.7,1.3-.3,6.4l.6,3.7s4.5,3.2,4.5,8.6c0,0-6.2,7.8,2.2,12.3,0,0,7.6,3.5,5.6-3.7,0,0,.6-5.1,6.5-2.4,0,0,14.6.8,21.9,10.4,0,0,1.1,4,5.3,1.9,0,0,0-2.7-3.7-6.4,0,0-6.7-10.7-1.1-18.7,0,0,6.7-.8,10.7-7,0,0,4.8-3.7,1.1-11.8,0,0,3.9-5.1-.8-14.7Z"/>
  <path class="cls-1" d="M155.7,545.4l-.5-2.5c-4.9,6.4-10.2.4-10.2.4-2.3-3.7-6.2-.5-6.2-.5,0,5.3-7.3,4.3-7.3,4.3l-5.6-2.1c-2.8-3.2-.6-7.5-.6-7.5l-3.4-7c1.1-3.2.6-4.8.6-4.8,0-5.3,3.4-5.3,3.4-5.3,1.7-6.9-4.5-5.9-4.5-5.9-2.2-2.1-6.7-11.2-6.7-11.2,0-2.7-11.2-4.8-11.2-4.8l-17.4.5c-4.5-.5-16.3,3.2-16.3,3.2l.6,2.1-5.1,2.1-9.6,10.2-6.7.5c0,3.2-6.2,10.2-6.2,10.2-3.9.5-9-1.1-9-1.1l-6.7-3.2-4.8-2.1c-.6.8-2.6,3.5-5.2,3.2,0,0-1.7,3.2,4.2,3.2,0,0,.6,3.7-2.3,4.3,0,0-5.6,1.9-3.7,9.4l-2.8.8s.3,9.1-1.4,10.4l-1.1,1.6s-.3,2.9,1.4,4.3c0,0-3.1-.5-4.8,3.2,0,0-1.7,7.2,4.8,3.5,0,0-.8,8,5.6,8,0,0-3.9,1.9-9,1.3,0,0-4.5.8-7,13.6l3.6.6,1.2.2s-.8,2.9,3.9,4.5c0,0,3.1,1.9,8.1,1.9,0,0-.6,6.7,3.4,9.9,0,0,9.3,6.1,11,14.7,0,0,1.4,4.5,1.4,6.9,0,0,.1.6.3,1.5l3.2.4,5.2-.8,2.1-.3,8.4,3.7,5.1,2.7,5.1-3.2,7.9,2.7,9-.5,4.5-4.3,5.6-3.2,4.5-.5s7.3-8,6.2-14.4l3.4-1.6s11.2-13.4,18-13.4c0,0-2.3-3.7,7.9-8.6,0,0,10.7-15.5,13.5-24.1l11.8-9.1-3.4-2.7,3.9-5.3Z"/>
  <path class="cls-1" d="M255,516.2l-3.8-5.2c-8.4,0-10.5-4.4-10.5-4.4,0-7.2,9.3-8,9.3-8l.7-5.5v-.9c.1,0-3.3-4.8-3.3-4.8h0s-6.3-5.5-6.3-5.5c-4-1.5-8.2-1.5-12.3-.7-.4,0-.8.2-1.2.3-.1,0-.3,0-.4,0-.3,0-.6.1-.8.2-.1,0-.3,0-.4.1-.4.1-.7.2-1.1.3-.1,0-.2,0-.3.1-.3,0-.6.2-.9.3-.1,0-.3,0-.4.1-.3,0-.6.2-.8.3,0,0-.2,0-.3.1-.4.1-.7.3-1,.4,0,0-.2,0-.2.1,0,0,0,0-.1,0-.2,0-.5.2-.7.3-.1,0-.3.1-.4.2-.3.1-.6.3-1,.4,0,0-.2,0-.3.1-.2.1-.5.2-.7.4-.1,0-.3.1-.4.2-.2.1-.5.2-.7.4,0,0-.1,0-.2.1,0,0,0,0,0,0-.3.2-.6.3-.8.5-.1,0-.2.1-.3.2-.2.1-.4.2-.6.3,0,0,0,0,0,0,0,0-.2,0-.2.1-.3.1-.5.3-.7.4,0,0-.2.1-.3.2-.2,0-.3.2-.5.3,0,0,0,0-.1,0,0,0-.1,0-.2.1-.2.1-.3.2-.5.3,0,0,0,0,0,0,0,0-.1,0-.2,0-.2.1-.4.2-.5.3,0,0-.2.1-.3.2,0,0-.2.1-.3.2,0,0-.1,0-.2.1,0,0,0,0,0,0-.2.1-.3.2-.4.3,0,0,0,0,0,0,0,0,0,0-.1,0,0,0-.2.1-.2.2,0,0,0,0,0,0,0,0,0,0,0,0,0,0-.2.1-.2.2,0,0,0,0,0,0,0,0-.1.1-.2.1,0,0,0,0,0,0,0,0,0,0,0,0,0,0,0,0-.1,0,0,0,0,0,0,0,0,0,0,0,0,0-.2,0-.4,0-.6,0,0,0-.2,0-.3,0,0,0-.2,0-.3,0-.1,0-.2,0-.4.1,0,0-.1,0-.2,0-.1,0-.3.1-.4.2,0,0,0,0,0,0-.1,0-.3.1-.4.2,0,0,0,0,0,0-.2,0-.3.2-.4.3,0,0,0,0,0,0-.1,0-.3.2-.4.3,0,0,0,0,0,0-.1.1-.3.2-.4.3,0,0,0,0,0,0-3.5,2.9-5.1,8.4-5.1,8.4-2.8,5.9-10.7,9.6-10.7,9.6l-7.3,3.7-6.2,5.9-4.5,4.3c-3.9,0-5.1,5.3-5.1,5.3-.6-3.2-9-2.7-9-2.7-2.2,0-5.1,3.2-5.1,3.2l1.7,5.3.6,4.3.6,3.3.5,2.5-3.9,5.3,3.4,2.7-11.8,9.1c-2.8,8.6-13.5,24.1-13.5,24.1-10.1,4.8-7.9,8.6-7.9,8.6-6.7,0-18,13.4-18,13.4l-3.4,1.6c1.1,6.4-6.2,14.4-6.2,14.4l-4.5.5-5.6,3.2-4.5,4.3-9,.5-7.9-2.7-5.1,3.2-5.1-2.7-8.4-3.7-7.3,1.1-3.2-.4c.5,2.1,1.3,5.8,1.9,7.9,0,0,1.1,5.6,4.5,7.2,0,0,.3,6.4,3.1,10.7,0,0,1.7,7.8.8,9.1,0,0,9,13.1,11,20.8l1.4,1.3.3-5.3,2.5,7.5-2.8-.3s-.8,5.9-2.5,7.8c0,0,.3,6.1,4.2,9.6,0,0,7.3,7.2,9.3,9.9,0,0,15.2,15.2,5.9,8.6,0,0-12.6-13.6-13.5-13.6,0,0-1.1,2.7,5.6,9.9l14.1,15.2,11.8,7.5s3.9,3.5,5.1-1.6l1.6.5.3-.9-4.2-5.8.8-4.4,5.5-4.4s4.2-7.6,2.5-10.8c0,0-4.6-11.6-.8-16,0,0-3.4-7.6,1.3-11.2l1.7-6.4s2.9-4.4.4-10.4l2.5-12s-.4-9.2,6.3-8c0,0,14.8.8,19.8-2.8,0,0,0-8,11.4-8.4,0,0,11.8-4.8,13.9.8,0,0,6.3,3.2,10.1-2.4,0,0,1.7-4.8,6.7.8,0,0,10.5,2.4,11,6.8,0,0,4.2,5.2,7.2-1.2,0,0,.8-6.4,6.3-5.6l7,4.1h0c0-1.1.1-1.7.1-1.7.8-4.8-3.8-8-3.8-8-5.1-4-3.4-6.8-3.4-6.8-4.2-4-1.3-9.2-1.3-9.2-3-4.4.8-6.8.8-6.8,3-2.8,7.2-8.8,7.2-8.8h3.8l.4-6.8c1.7-2.4,0-5.6,0-5.6-.8-6.4,2.1-8,2.1-8l.8-5.6v-7.6c0-3.6-2.5-4.8-2.5-4.8l4.2-2,.8-4.4c7.2-2.8,2.5-5.6,2.5-5.6l1.3-4c0-2.8,2.5-5.6,2.5-5.6l11-6.4c2.1-4.4,7.6-8,7.6-8l5.9-.4c2.5-2,7.2-5.2,7.2-5.2l2.1-3.2-2.5-1.2Z"/>
  <path class="cls-3" d="M172,437.5l-1.7,3.7h-5.6l-7.9,1.6c-6.2-3.2-5.6-9.6-5.6-9.6,6.2-10.2,0-11.2,0-11.2l.6-5.9c2.8,0,5.1-1.6,5.1-1.6,2.2-4.8-3.4-11.2-3.4-11.2-1.3-1.2-2.4-2.7-3.2-4.2-.1-.2-.2-.4-.4-.6,0,0,0-.1,0-.2,0-.2-.2-.3-.2-.5,0,0,0-.1,0-.2,0-.2-.2-.3-.2-.5,0,0,0-.1,0-.2,0-.2-.2-.3-.2-.5,0,0,0,0,0,0-.9-2-1.4-3.7-1.5-4.2h0c0-.1,0-.2,0-.2-5.1-3.2-11.8-1.1-11.8-1.1l-1.8-.3-11.7-1.8-17.4-3.2c-10.3-3.4-16.1-.4-18.7,1.6,2.2.5,6.3,2,2.5,4.1,0,0-.2.1-.3.2,0,0-7.6.5-12.4.3,0,0-7.9,2.9-14.6,0,0,0-11-1.3-17.1,4.8,0,0-4.8,2.9-6.7,9.9l2.5,1.6s-2.5,1.3-3.4,3.7l-.6,9.6s-7-1.6-12.9,16.8l-.8,2.4s-1.1,4.3.6,8.3c0,0,3.1,5.3,1.1,6.1,0,0-2,2.9.8,5.9,0,0,3.1.8-.3,2.7,0,0,0,2.1,1.4,2.1,0,0,2.2,1.1-.8,2.7,0,0,1.9,1.2.9,2.8l11.9.4h11.2l4.5-4.8h5.1l4.5-4.8,2.2-5.3,5.1,1.1,1.7-8,6.7-1.1c16.9-9.1,24.7-7.5,24.7-7.5,12.9-5.3,15.2-.5,15.2-.5,0,7,9.6,7,9.6,7l6.7,2.7,7.3,1.6,7.9-4.3c3.4,0,1.1,3.7,1.1,3.7l5.1,1.6h11.2l5.1,1.6,3.9-11.8-4.5-5.3Z"/>
  <polygon class="cls-1" points="99.4 475.1 98.8 478.9 103.9 483.7 106.7 490.6 116.8 491.7 120.7 488 135.4 480.5 135.4 476.7 134.2 471.9 128 470.9 121.3 471.9 116.2 471.9 107.8 471.9 99.4 473 99.4 475.1"/>
  <path class="cls-1" d="M228.8,480.2s-9.6-2.7-19.1-1.1c0,0-10.7,1.1-10.7-7.5,0,0,.6-6.9-3.4-8.6l-.6-5.9s2.8-3.2,2.8-5.9c0,0,3.9-2.7-4.5-5.3l-7.9-1.1-3.4-2.1h-5.6l-3.9,11.8-5.1-1.6h-11.2l-5.1-1.6s2.2-3.7-1.1-3.7l-7.9,4.3-7.3-1.6-6.7-2.7s-9.6,0-9.6-7c0,0-2.2-4.8-15.2.5,0,0-7.9-1.6-24.7,7.5l-6.7,1.1-1.7,8-5.1-1.1-2.2,5.3-4.5,4.8h-5.1l-4.5,4.8h-11.2l-11.9-.4c-.1.2-.3.4-.6.7,0,0-2.2,2.4,2.2,3.2,0,0,1.5,3.7-1.2,5.5-.4.2-.8.4-1.3.6,0,0-4.5,4.5,2,5.9,0,0-2.5,2.1-2,5.3,0,0,2.5,2.9,1.7,4.8,0,0,2,.8,2,5.6,0,0-5.1,10.7,2.8,11.5,0,0,.6,1.6-3.9,1.1,0,0-6.5.3-3.1-11.2,0,0-2,2.9-2.5,5.1,0,0-2.8.3-.6,3.7,0,0-3.4,3.5,3.9,6.4,0,0,1.7,2.4-2.8,1.1,0,0,0,0-.2.2l4.8,2.1,6.7,3.2s5.1,1.6,9,1.1c0,0,6.2-6.9,6.2-10.2l6.7-.5,9.6-10.2,5.1-2.1-.6-2.1s11.8-3.7,16.3-3.2l17.4-.5s11.2,2.1,11.2,4.8c0,0,4.5,9.1,6.7,11.2,0,0,6.2-1.1,4.5,5.9,0,0-3.4,0-3.4,5.3,0,0,.6,1.6-.6,4.8l3.4,7s-2.2,4.3.6,7.5l5.6,2.1s7.3,1.1,7.3-4.3c0,0,3.9-3.2,6.2.5,0,0,5.3,6,10.2-.4l-.6-3.3-.6-4.3-1.7-5.3s2.8-3.2,5.1-3.2c0,0,8.4-.5,9,2.7,0,0,1.1-5.3,5.1-5.3l4.5-4.3,6.2-5.9,7.3-3.7s7.9-3.7,10.7-9.6c0,0,1.6-5.5,5.1-8.4,1.1-.9,2.4-1.6,3.9-1.7,0,0,9.3-7.2,19.7-9.2v-.9ZM135.4,480.5l-14.6,7.5-3.9,3.7-10.1-1.1-2.8-6.9-5.1-4.8.6-3.7v-2.1l8.4-1.1h13.5l6.7-1.1,6.2,1.1,1.1,4.8v3.7Z"/>
  <path class="cls-3" d="M154.6,237.1l5.1,7.6,5.1,4.4,6.3,1.2,12.2,7.6c6.3.8,12.2,3.6,12.2,3.6.8,4.8,9.3,2.4,9.3,2.4,3.8-2.4,7.2.4,7.2.4,7.2,5.6,8-6,8-6,0-5.2,3-5.6,3-5.6l11,.8,6.7,2.4,3.8,3.2c.4,6,6.7,4.4,6.7,4.4,1.7-3.2,8-6.4,8-6.4,3.8,1.6,10.1-3.2,10.1-3.2.8-2.8,7.2-6.4,7.2-6.4,2.9,1.2,8.4-2.8,8.4-2.8.4-3.2,3-5.2,3-5.2,3.8-4.4,5.9,0,5.9,0,1.3,1.6,3,1.6,3,1.6,0-2.4,4.2-6.4,4.2-6.4-.8-2.4.8-5.6.8-5.6l3.9-7.8h0c-.7-2.7-3.4-5.6-4.4-6.6,0,0,0,0,0,0-.1-.1-.2-.3-.3-.3,0,0,0,0,0,0,0,0,0,0,0,0-3.8-2.8-5.9-6.8-5.9-6.8l-8.4.4-7.2.8-8.9-.8-5.5,2.4-4.2,2.4-6.3-4.8c0-5.2,3.8-4.8,3.8-4.8,5.9-3.2-2.5-7.2-2.5-7.2l3.8-6.8c1.7-2.4-6.3-6.4-6.3-6.4-4.6-2-8-8.4-8-8.4l-12.2-3.2c-2.5-2.8-1.3-8-1.3-8-4.2-3.2-.4-5.6-.4-5.6l-7.6-2.8v-.5s-1.3-.3-1.3-.3l-4.6-2.4-6.3-1.4-3.7-.7c-2.1.4-4.4,2.5-5.6,9.3,0,0-2,3.7-5.6,5.1,0,0-2.3,1.1,1.7,5.3,0,0-11.8-1.9-18.8,4.8,0,0-6.2,7-11,10.4,0,0-3.7,4.3-3.9,9.4,0,0-3.4,6.7-5.1,9.1,0,0-2,5.3-2.2,9.1,0,0-1.7,5.1-5.1,7.5l-1.7,3.5-2.5,1.3-2,2.4-.9,1.3,4.4,3.9,5.1,5.6Z"/>
  <path class="cls-3" d="M348.1,239.9c-3,0-8.4,3.2-8.4,3.2-5.9,0-10.1-5.2-10.1-5.2-5.9,0-6.7-3.6-6.7-3.6.8-3.2-2.5-10-2.5-10l-3,1.6-6.7,1.6-7.2.4h-1.1s-.6,1.2-.6,1.2c0,0-1.7,3.2-.8,5.6,0,0-4.2,4-4.2,6.4,0,0-1.7,0-3-1.6,0,0-2.1-4.4-5.9,0,0,0-2.5,2-3,5.2,0,0-5.5,4-8.4,2.8,0,0-6.3,3.6-7.2,6.4,0,0-6.3,4.8-10.1,3.2,0,0-6.3,3.2-8,6.4,0,0-6.3,1.6-6.7-4.4l-3.8-3.2-6.7-2.4-11-.8s-3,.4-3,5.6c0,0-.8,11.6-8,6,0,0-3.4-2.8-7.2-.4,0,0-8.4,2.4-9.3-2.4,0,0-5.9-2.8-12.2-3.6l-12.2-7.6-6.3-1.2-5.1-4.4-5.1-7.6-5.1-5.6-4.4-3.9-5,7.2,2.2,4.5-2.5-.8s-1.7-1.1-2.2-.3c0,0-.6,2.4-4.2,6.7l-.8,4s-5.6,1.6-2.8,5.6c0,0-2.5.5-1.4,3.7,0,0-2.2.3-2.2,5.6,0,0-.8,5.9-9,4.8,0,0-4.2-1.6-4.2,2.9,0,0,12.4,0,2,15.8,0,0-3.1.8-2,4.7,2.2,1.7,5.2,4.4,5.8,7.3l6.2,5.3,1.7,5.9,6.7,9.1,9,6.4v6.9l5.6,10.7-4.6-8.8c1.1-1.4,3.3-2.8,7.4-.8,0,0,10.7,8,19.7,6.9,0,0,19.1.5,20.8-5.9,0,0,6.7-9.1.6-11.8,0,0,17.4,1.1,20.2-2.1,0,0,15.7-12.3,27.5-10.7,0,0,8.4-10.7,19.1-11.2,0,0,2.8-11.8,18-10.2,0,0,2.8-4.8,12.9-3.7,0,0,9.6-8.6,13.5-1.1,0,0,5.1,1.1,4.5-5.9,0,0,4.5-3.2,5.1,1.6,0,0,16.9-3.7,17.4,2.7l.2.2-.6-1.9,3.8-5.6,5.1-2v-8l3.4-3.2,7.2-5.6,2.5-4.4c0-4,1.7-7.2,1.7-7.2,0-4-5.1-5.2-5.1-5.2Z"/>
  <path class="cls-3" d="M312.6,280.3c-.6-4.8-5.1-1.6-5.1-1.6.6,6.9-4.5,5.9-4.5,5.9-3.9-7.5-13.5,1.1-13.5,1.1-10.1-1.1-12.9,3.7-12.9,3.7-15.2-1.6-18,10.2-18,10.2-10.7.5-19.1,11.2-19.1,11.2-11.8-1.6-27.5,10.7-27.5,10.7-2.8,3.2-20.2,2.1-20.2,2.1,6.2,2.7-.6,11.8-.6,11.8-1.7,6.4-20.8,5.9-20.8,5.9-9,1.1-19.7-6.9-19.7-6.9-4.1-1.9-6.3-.6-7.4.8l4.6,8.8v9.6l7.9,4.8-5.6,6.4-1.1,7.5,1.1,6.9s-2.2,1.6-2.2,4.3c0,0,2.8,3.7,2.8,6.9,0,0,9-.5,9,3.7,0,0-2.9,4.9-9.4,4.9.9,1.5,1.9,2.9,3.2,4.2,0,0,5.6,6.4,3.4,11.2,0,0-2.3,1.6-5.1,1.6l-.6,5.9s6.2,1.1,0,11.2c0,0-.6,6.4,5.6,9.6l7.9-1.6h5.6l1.7-3.7,4.5,5.3h5.6l3.4,2.1,7.9,1.1c8.4,2.7,4.5,5.3,4.5,5.3,0,2.7-2.8,5.9-2.8,5.9l.6,5.9c3.9,1.6,3.4,8.6,3.4,8.6,0,8.6,10.7,7.5,10.7,7.5,9.6-1.6,19.1,1.1,19.1,1.1v.9c4.1-.8,8.4-.8,12.4.7l6.3,5.5,4.1-1.2,3.8-2,3-4c-6.3-4-.4-6-.4-6,3.8-2.4,2.5-5.2,2.5-5.2l.8-2.4h11.4l5.1-1.6c6.3-3.2,3.8-6.8,3.8-6.8l1.7-4.8-1.7-2.8c1.7-4,6.7-1.2,6.7-1.2,2.1-2.8,11.8-7.2,11.8-7.2,2.1-2.4,1.7-9.2,1.7-9.2-.4-6.4,3.4-10.8,3.4-10.8,5.1-6-2.5-7.6-2.5-7.6.4-4-1.7-8.4-1.7-8.4-8.9-4.8-.4-9.6-.4-9.6,1.7-1.2.8-6.4.8-6.4l3.8-4.4,1.7-10.8,2.1-4.4-.8-5.6,4.2-3.2-.8-14c0-3.6-2.1-4.4-2.1-4.4,0-3.6,2.5-6.4,2.5-6.4.4-2.4-.4-5.2-.4-5.2l3.4,1.6.4-6.4,6.7-4,3-4,1.3-6-6.7-4-8.9-7.6,2.1-6.8,5.9-3.6,4.2-6.4v3.2l3,4.4,4.2,1.6,1.3-6.4-1.1-3.7-.2-.2c-.6-6.4-17.4-2.7-17.4-2.7Z"/>
  <path class="cls-3" d="M150.7,390.4c0-3.2-2.8-6.9-2.8-6.9,0-2.7,2.2-4.3,2.2-4.3l-1.1-6.9,1.1-7.5,5.6-6.4-7.9-4.8v-9.6l-4.6-8.8-1-1.9v-6.9l-9-6.4-6.7-9.1-1.7-5.9-6.2-5.3c-.7-2.9-3.6-5.6-5.8-7.3.1.5.3,1.1.6,1.7,0,0-4.8,3.7-9,7.2,0,0-3.1,2.1-3.4,4.5,0,0-3.6,2.7-3.6,6.1,0,0,1.1,3.7-1.7,7.2l5.1.3s-9.6,2.1-11,8.8c0,0-9.3,1.1-7.6,7.8,0,0-4.5-2.4-5.6,5.3,0,0-2.3,1.3,0,6.1,0,0-.6,2.4-3.4,2.4l.3,3.7s-2.8,1.3-4.2,4c0,0-3.4,4.5-5.9,10.2l-3.7,3.5s1.4,2.1,2.8,2.4c0,0-3.1,4.5-6.2,5.9,0,0-1.1,3.5,2,4.5,0,0-1.7,1.6.8,2.7,0,0,10.7,2.4,16.3,1.9,0,0,4.2-2.9,9.3-1.6,0,0,.5,0,1.2.3,2.6-2.1,8.4-5,18.7-1.6l17.4,3.2,11.7,1.8,1.8.3s6.7-2.1,11.8,1.1c0,0,.9,3.5,3,7.1,6.6,0,9.4-4.9,9.4-4.9,0-4.3-9-3.7-9-3.7Z"/>
  <path class="cls-2" d="M429.5,252.4l7.7-3.8.3-.5c1-1.8,3.5-7.2,2.7-14,0,0-.6-8.1,8.7-14.6,0,0,5.6-7.3,11.2-6.5,0,0-1.2-5.2-6.2-6,0,0-3.7-3,1.3-4.3,0,0,12.2-1.1,6.6-11.7,0,0-.6-6,2.5-7.3,0,0-8.7,2.2-4.4-2.7l3.4-2.4s-6.9-2.7-9.4-8.1l-2.5-4.6v-3.3l-.3-5.4-.6-3.8-2.2-3.3,1.2-1.9s-7.2-11.9-4.1-19.5l.6-10.3,1.2-3.5s5.6-9.2,5.6-11.9c0,0,8.7.5,7.8-7.6,0,0,5.9-6.5,10-8.9,0,0,2.6-1.5,2.6-2.9l9.2-4.2-4.7-2.5-5.1,1.6s-10.5.4-18.6,6.8c0,0-5.9,2.4-8,.8,0,0,5.1,6.4,3.8,9.6,0,0,2.5,3.6-10.1,4.8,0,0-11.4,9.6-11.8,13.2h-6.3s-5.5,4.4-10.1,9.6l-14.3,2.8-3,4-7.2,2.8.8,15.2s-9.3,4.8-12.7,4.8c0,0-1.7,10.4-7.2,5.2,0,0-5.5,5.2-9.3,5.2l-.6.6c-.2,1.2-1,2-1,2-3.4.5-.6,4.3-.6,4.3,2.3,5.3-3.4,12.3-3.4,12.3l-11.2.5-.6,1.2v1.6l-1.7,3.6-1.3,6,1.3,5.6-3.4,2.4-6.3,4-2.5,4.4-2.5,3.2-2.5,2.8-2.5,6.4s3.4,6.8,2.5,10c0,0,.8,3.6,6.7,3.6,0,0,4.2,5.2,10.1,5.2,0,0,5.5-3.2,8.4-3.2,0,0,5.1,1.2,5.1,5.2,0,0,4.6,2,8.9.4,0,0,5.1,3.6,13.5,3.6,0,0,11.8,8.4,16.4,7.6,0,0,1.7-.8-1.3-5.2,0,0,7.6,0,7.2-8.4,0,0,6.3,0,16.9,6.8,0,0,5.5,4,14.8,2.4Z"/>
  <path class="cls-2" d="M340.1,183.7l-5,1.5-3.1-.4s0,0,0,0c-.1,0-.3,0-.4,0,0,0,0,0,0,0-.1,0-.3,0-.4,0,0,0,0,0,0,0-.1,0-.2,0-.4,0,0,0,0,0,0,0-.1,0-.2,0-.3,0l-1.6-3-.3-.4c-1-2.1-2.5-4.3-2.8-4.8,0,0,0,0,0,0,0,0,0-.1,0-.1l-4.5-3.7-6.2-2.7c0-.3.1-.7.2-1,0-.1,0-.3,0-.4,0-.2,0-.3,0-.5,0-.4,0-.7,0-1.1h0s0-.9,0-.9l-.2-.4h0c0-.2,0-.5-.1-.7,0,0,0,0,0-.1-.7-3.1-2.4-5.4-3.1-6.3,0,0,0,0,0,0,0,0,0,0-.1-.1,0,0,0,0,0,0,0,0,0,0,0,0,0,0,0,0,0,0,2.8,0,4.5-3.7,4.5-3.7l-1.1-4.4v-6l-1-1.2c-.2-.7-.6-1.3-.9-1.9,0,0,0,0,0,0-.1-.2-.3-.3-.4-.5,0,0,0,0,0,0-.1-.1-.3-.3-.4-.4,0,0,0,0,0,0-.1-.1-.3-.3-.4-.4,0,0,0,0,0,0-.3-.3-.7-.6-1-.8l-.8-1-5.7-1.7c0-.1,0-.2,0-.4,0,0,0,0,0,0,0,0,0-.1,0-.2h0c0,0,0-.1,0-.2,0,0,0,0,0,0,0-.1-.1-.2-.2-.3,0,0,0,0,0,0,0-.1-.1-.2-.2-.3,0,0,0,0,0,0,0,0-.2-.2-.3-.3,0,0,0,0,0,0,0,0-.2-.2-.3-.3,0,0,0,0,0,0-.1,0-.2-.2-.3-.2,0,0,0,0,0,0-.1,0-.2-.2-.4-.2,0,0,0,0,0,0-.1,0-.3-.2-.4-.2,0,0,0,0,0,0-.1,0-.3-.1-.4-.2,0,0,0,0,0,0-.1,0-.3-.1-.4-.2,0,0,0,0,0,0-.2,0-.3-.1-.5-.2,0,0,0,0,0,0-.2,0-.3-.1-.5-.2,0,0,0,0,0,0-.2,0-.3-.1-.5-.2,0,0,0,0,0,0-.2,0-.3-.1-.5-.2,0,0,0,0,0,0-.2,0-.3-.1-.5-.2,0,0,0,0,0,0-.2,0-.3,0-.5-.1,0,0,0,0,0,0-.2,0-.3,0-.5-.1,0,0,0,0,0,0-.2,0-.3,0-.5-.1,0,0,0,0,0,0-.2,0-.3,0-.5-.1,0,0,0,0,0,0-.2,0-.3,0-.5-.1,0,0,0,0,0,0-.2,0-.3,0-.5,0,0,0,0,0,0,0-.1,0-.3,0-.4,0,0,0,0,0,0,0-.1,0-.3,0-.4,0,0,0,0,0,0,0-.1,0-.3,0-.4,0,0,0,0,0,0,0-.1,0-.2,0-.3,0,0,0,0,0,0,0-.1,0-.2,0-.3,0,0,0,0,0,0,0,0,0-.2,0-.2,0,0,0,0,0,0,0-.2,0-.4,0-.5,0,0,0,0,0,0,0-3.4-5.3-14.1-9.1-14.1-9.1,0-.4.1-.8.2-1.2,0,0,0,0,0-.1,0-.4,0-.8,0-1.1h0c0-5.2-4.3-7.1-5.8-7.6,0,0,0,0,0,0-.1,0-.2,0-.3,0,0,0,0,0,0,0,0,0-.1,0-.2,0,0,0,0,0,0,0,0,0,0,0,0,0-3.9.5-5.6-1.6-5.6-1.6-9,0-12.4-9.6-12.4-9.6,0-4.3-9.6-4.3-9.6-4.3-2.3.4-5.9-1-7.9-1.9-1.6,2.1-3.6,4.3-5.7,6.2l-1.7,2.7-.8,2.4,2.8.3s-1.4,1.6-3.7,1.6l-1.7,2.9-1.4,7.2s-4.1,1.4-6,6c.8,1.2,1.7,2.3,2.5,2.1l1.3-4s1.7-3.2,5.5-.8c0,0,5.5,4.8,8.9,4.8,0,0,5.1,1.6,4.6,6.4,0,0,3.8,12.8-2.5,9.6,0,0-3.4-1.2-3.4,4.4l-6.3,1.6-4.2,2.8-.4,4.3v.5s7.5,2.8,7.5,2.8c0,0-3.8,2.4.4,5.6,0,0-1.3,5.2,1.3,8l12.2,3.2s3.4,6.4,8,8.4c0,0,8,4,6.3,6.4l-3.8,6.8s8.4,4,2.5,7.2c0,0-3.8-.4-3.8,4.8l6.3,4.8,4.2-2.4,5.5-2.4,8.9.8,7.2-.8,8.4-.4s2.1,4,5.9,6.8c0,0,0,0,0,0,0,0,0,0,0,0,0,0,.2.2.3.3,0,0,0,0,0,0,1,1,3.6,3.9,4.4,6.6h0s-3.9,7.8-3.9,7.8l.6-1.2h1.1l7.2-.4,6.7-1.6s3-1.6,3-1.6l2.5-6.4,2.5-2.8,2.5-3.2,2.5-4.4,6.3-4,3.4-2.4-1.3-5.6,1.3-6,1.7-3.6v-1.6l.6-1.2-2.3.7Z"/>
</svg>