<?xml version="1.0" encoding="UTF-8"?>
<svg id="_圖層_1" data-name="圖層 1" xmlns="http://www.w3.org/2000/svg" version="1.1" viewBox="0 0 241.9 375.2">
  <defs>
    <style>
      .cls-1 {
        fill: #ded6e4;
        stroke: #ccc;
        stroke-linecap: round;
        stroke-linejoin: round;
        stroke-width: 5px;
      }
    </style>
  </defs>
  <path class="cls-1" d="M241.9,137.7c-.6,7.4-5.3,10.4-10.1,13.2-3.5,2-7.3,3.4-10.7-.7-1.8-2.1-4.4-3.4-6.3-5.4-2.7-2.8-5.4-2.2-8.1-.5-3,2-5.7,3.7-9.6,1.8-1.2-.6-4.3.8-5.3,2.2-3.7,4.8-7.8,8.6-12.9,11.9-5.7,3.7-10.4,9.2-14.9,14.4-1.8,2.1-2.7,5.4-2.9,8.2-.3,4.4-2.6,6-6.4,5.9-4.6,0-9.3-.7-13.9-.9-1.8,0-4.2-.2-5.3.7-5.4,4.5-9.2.5-12.9-2.3-6-4.6-12.4-7.8-19.8-9.9-5.1-1.4-9.3-6.2-13.9-9.4-1.5-1-2.8-2.3-4.4-3-5-2.2-5.9-3.9-3.7-8.8,1-2.2,2.4-4.5,4.2-6.2,5.5-5,8.8-3.8,11.8,1,1.4,2.2,2.8,4.6,4.6,6.4,2.8,2.9,6.1,5.2,10.6,3.5,1-.4,2.3-.3,3.5-.2,6.2.6,12.3,1.3,18.5,1.9,1.3.1,3.1.4,3.9-.3,1.6-1.4,3.2-3.3,3.6-5.3.2-1-1.8-3.3-3.2-3.7-6.2-1.8-12.5-2.9-19-1-1.5.4-3.5.6-4.8,0-5.1-2.6-10-5.5-14.8-8.5-.9-.6-1.5-2.7-1.2-3.8,1.1-3.7,2.8-7.3,4-11,1.5-4.2,4.9-5.6,8.8-6.5,5.1-1.2,9.3-2.7,10-9.2.4-3.9,1.9-8.2,7.6-8.2,1,0,2.4-1.9,2.8-3.2,3.2-10.5,13.8-15,23.5-10.1,3.2,1.6,6.7,3.1,10.3,3.5,6.1.7,11.3,2.3,15.4,7.1.5.6,3.3.1,4.2-.7,5.5-5.2,6.5-5.2,13.5-1.8,4.7,2.3,9.6,4.4,15.3,2.9,4.1-1,9.3,2,9.9,5.8,1.7,11,8.1,18.9,15.8,26,1.4,1.3,2.1,3.1,2.8,4.1Z"/>
  <path class="cls-1" d="M36.1,124.9c-.3-2.5-.5-5-.8-7.4-.4-3.8,1.5-5.1,5.1-4.7,5.2.5,6.4-.4,5.7-5.5-.5-3.6-1.8-7-2.9-10.5-2.4-8.2-1.6-16.1,2.5-23.6,4.4-8.1,11.3-9.4,18.5-3.7,2.9,2.3,17.4,3.1,20.8,1.2,3.1-1.8,9.5-1,10.9,2,1.7,3.5.4,6.6-2.4,9.4-4.5,4.5-9.6,6.4-16,6.1-5.9-.3-9.4,4.2-7.2,9.4,2.1,4.9,1,9-1.6,12.7-3.9,5.6-2.8,11.2-1.4,17.1.7,3,2,7.9.6,9-3.6,3-8.6,6.1-12.9,6.1-7.4,0-13.6,1.6-19.7,5.3-3,1.8-6.5,3.2-10,4-3.8.8-5.4-2.2-7-5.1-1.6-3-1.9-5.9.6-8.2,3.8-3.5,7-8,13.3-8,1.7,0,3.3-2.9,5-4.5-.3-.3-.7-.7-1-1Z"/>
  <path class="cls-1" d="M156.3,68.7c.3,4.6-2.4,7.5-6.4,9-6.5,2.4-13.5,3.6-18.4,9.3-.6.6-4.7-.4-5.5-1.7-2-3.1-3.5-6.8-4.5-10.4-.8-3.3-2.5-4.6-5.7-5.2-9-1.8-18-3.8-25.1-10.1-1.5-1.4-3-4.8-2.3-6.2,1.3-2.4,4.1-4.1,6.4-5.9.5-.4,1.6-.1,2.5-.1,5.7,0,11.3-.3,16.1-4,1-.8,3-1.2,4.2-.8,4.9,1.7,9.4.4,13.4-1.9,5.4-3.2,9.9-.8,14.5,1.2,2.4,1,4.5,2.8,6.5,4.6,3.2,2.8,6.2,5.4,3.9,10.9-1.3,3.1.2,7.5.4,11.3Z"/>
  <path class="cls-1" d="M36.1,274.4c2.1-2.6,4-5.1,6-7.5,4.9-6.1,4-17.5-1.6-22.7-1.2-1.1-2.5-3.9-1.9-4.9,1-1.9,3.2-4,5.2-4.5,9.8-2.4,13.5,0,17.4,9.4.8,1.9,3.4,3.5,5.5,4.2,4.7,1.6,6.7,4.3,6.4,9.2,0,1.2.1,2.8.8,3.7,2.6,3.4,1.2,6.2-1.4,8.3-5.5,4.5-11.4,8.6-17.2,12.8-3.2,2.3-5.9,1.7-8.9-1-2.9-2.6-6.5-4.4-10.4-7Z"/>
  <path class="cls-1" d="M25.9,371.8c-.4,0-1.7.2-3,.3-3.3.2-6.2,6.4-10,.8-2.2-3.2-4.8-6.1-6.9-9.3-2.1-3.3-3.8-6.9-5.5-10.5-1.7-3.8.7-6.9,4.6-7.5,6.4-.9,12.8-1.9,18.9-3.8,5.7-1.8,13.6-.7,17.3,3.9.6.7.4,2.4.2,3.5-1,4-2.3,7.8-3.2,11.8-1.1,5-7.6,11.3-12.5,10.9Z"/>
  <path class="cls-1" d="M67,195.3c-6.2-2.5-7-6.1-6.7-10.1.4-4.4,4.9-6.9,8.7-4.7,2,1.1,3.7,2.7,5.5,4.2,3.2,2.6,6.1,4.7,11,4.3,4-.3,8.4,1.8,12.2,3.7,1.5.7,2.6,3.8,2.5,5.7-.3,4.5-5.1,8.9-9.7,9.3-6.1.6-11.9,1.5-17.1,5.6-4.7,3.7-10.8,2.5-16.2.9-1.7-.5-3.8-3.5-3.6-5.1.2-2.4,2-5.1,3.8-6.9,2.4-2.4,5.6-4.1,9.6-6.8Z"/>
  <path class="cls-1" d="M143.1,12.7c-2.7,4.4-4.7,9.3-8.2,13-4.1,4.3-11.7,1.5-13.5-4.4-1.4-4.7-1.9-9,2.8-12.4,1.1-.8,1.6-2.5,2.6-3.6,1.9-2,4.2-5.6,6-5.3,2.8.4,5.6,3,7.6,5.3,1.3,1.6,1.3,4.3,1.8,6.5.3.3.6.6.9.9Z"/>
  <path class="cls-1" d="M188.3,322.9c-1.9,1.9-3.7,3.8-5.6,5.7-3.1,2.9-5,5.9-3.4,10.6.6,1.8-.3,5.5-1.7,6.4-2.9,1.8-4.8-.7-6.6-3.3-1.6-2.4-4.1-4.2-6.4-6-3-2.5-6.4-4.6-9.3-7.3-.5-.5.8-4.3,1.4-4.3,6-.3,12.1-4.6,17.9.6.6.6,2.4.2,3.5-.1,3.4-1.1,6.6-2.4,9.9-3.6.1.4.2.9.3,1.3Z"/>
  <path class="cls-1" d="M110.1,336.5c.1-1.6,1-3.4,4.2-2.5.9.3,2,.2,2.9.4,2.4.6,4.7,1.2,7.1,1.8-1.9,3.1-3.2,7-5.9,9.2-3,2.4-9-3.2-8.4-8.9Z"/>
</svg>